<svg width="1023" height="1023" viewBox="0 0 1023 1023" fill="none" xmlns="http://www.w3.org/2000/svg">
<path d="M904.631 634.508C918.002 617.923 923.093 596.153 918.463 575.36L852.918 280.978C848.288 260.184 834.442 242.63 815.298 233.285L544.274 100.986C525.131 91.6415 502.773 91.5225 483.531 100.663L211.115 230.071C191.873 239.212 177.841 256.617 172.99 277.36L104.317 571.028C99.4659 591.771 104.325 613.594 117.518 630.32L304.3 867.11C317.493 883.836 337.585 893.643 358.887 893.757L660.473 895.361C681.776 895.474 701.971 885.881 715.341 869.297L904.631 634.508Z" fill="white"/>
<path d="M819.741 614.65C833.112 598.066 838.202 576.296 833.573 555.502L784.47 334.966C779.84 314.172 765.993 296.619 746.85 287.274L543.812 188.162C524.669 178.817 502.311 178.698 483.069 187.839L278.989 284.785C259.747 293.925 245.714 311.331 240.864 332.074L189.417 552.075C184.566 572.818 189.425 594.641 202.618 611.367L342.546 788.758C355.739 805.484 375.831 815.291 397.133 815.405L623.067 816.607C644.369 816.72 664.564 807.127 677.934 790.543L819.741 614.65Z" fill="#15155F"/>
<mask id="mask0_434_956" style="mask-type:alpha" maskUnits="userSpaceOnUse" x="187" y="181" width="649" height="636">
<path d="M819.741 614.65C833.112 598.066 838.202 576.296 833.573 555.502L784.47 334.966C779.84 314.172 765.993 296.619 746.85 287.274L543.812 188.162C524.669 178.817 502.311 178.698 483.069 187.839L278.989 284.785C259.747 293.925 245.714 311.331 240.864 332.074L189.417 552.075C184.566 572.818 189.425 594.641 202.618 611.367L342.546 788.758C355.739 805.484 375.831 815.291 397.133 815.405L623.067 816.607C644.369 816.72 664.564 807.127 677.934 790.543L819.741 614.65Z" fill="#15155F"/>
</mask>
<g mask="url(#mask0_434_956)">
<path d="M361.503 795.292L199.286 589.449L395.289 545.729L449.624 614.687L361.503 795.292Z" fill="#F6A6DA" stroke="#F6A6DA" stroke-width="20"/>
<path d="M194.945 569.93L254.665 314.552L410.951 440.616L390.935 526.209L194.945 569.93Z" fill="#F9CEAD" stroke="#F9CEAD" stroke-width="20"/>
<path d="M379.465 804.066L641.518 805.401L555.302 623.869L467.587 623.458L379.465 804.066Z" fill="#9783EA" stroke="#9783EA" stroke-width="20"/>
<path d="M659.567 796.795L824.011 592.636L628.486 546.946L573.374 615.328L659.567 796.795Z" fill="#94BBFD" stroke="#94BBFD" stroke-width="20"/>
<path d="M828.561 573.16L771.669 317.238L613.984 441.709L633.044 527.465L828.561 573.16Z" fill="#CCF6FF" stroke="#CCF6FF" stroke-width="20"/>
<path d="M267.203 299.02L504.077 186.408L502.871 387.373L423.529 425.107L267.203 299.02Z" fill="#FCEE8D" stroke="#FCEE8D" stroke-width="20"/>
<path d="M524.052 186.577L759.293 301.525L601.6 426.008L522.769 387.492L524.052 186.577Z" fill="#D9D9BC" stroke="#D9D9BC" stroke-width="20"/>
<path d="M617.5 558.446C627.05 546.6 630.686 531.05 627.38 516.197L614.43 458.039C611.123 443.186 601.233 430.648 587.559 423.973L534.015 397.836C520.341 391.161 504.372 391.076 490.627 397.605L436.808 423.171C423.064 429.7 413.041 442.132 409.576 456.949L396.009 514.966C392.544 529.783 396.015 545.371 405.439 557.318L442.339 604.098C451.763 616.045 466.114 623.05 481.33 623.131L540.912 623.448C556.128 623.529 570.553 616.677 580.103 604.831L617.5 558.446Z" fill="white"/>
</g>
</svg>
