<svg width="943" height="944" viewBox="0 0 943 944" fill="none" xmlns="http://www.w3.org/2000/svg">
<path d="M832.205 587.753C845.576 571.169 850.667 549.399 846.037 528.605L786.716 262.178C782.086 241.385 768.24 223.831 749.096 214.486L503.81 94.7509C484.666 85.406 462.309 85.2871 443.067 94.4277L196.52 211.547C177.278 220.687 163.246 238.093 158.395 258.836L96.2431 524.616C91.3923 545.359 96.2513 567.182 109.445 583.908L278.489 798.212C291.682 814.937 311.774 824.745 333.076 824.858L606.023 826.31C627.325 826.424 647.52 816.83 660.89 800.246L832.205 587.753Z" fill="#15155F"/>
<mask id="mask0_431_289" style="mask-type:alpha" maskUnits="userSpaceOnUse" x="147" y="141" width="648" height="637">
<path d="M779.454 575.416C792.824 558.832 797.915 537.062 793.285 516.268L744.182 295.732C739.552 274.938 725.706 257.385 706.562 248.04L503.525 148.928C484.381 139.583 462.024 139.464 442.782 148.605L238.701 245.551C219.459 254.691 205.427 272.097 200.576 292.84L149.129 512.841C144.279 533.584 149.138 555.408 162.331 572.133L302.258 749.524C315.452 766.25 335.543 776.058 356.845 776.171L582.779 777.373C604.081 777.486 624.276 767.893 637.647 751.309L779.454 575.416Z" fill="#15155F"/>
</mask>
<g mask="url(#mask0_431_289)">
<path d="M318.15 744.316L171.305 558.152L350.483 518.252L398.676 579.359L318.15 744.316Z" fill="#15155F" stroke="#F6A6DA" stroke-width="37"/>
<path d="M163.263 522.043L217.263 291.123L360.164 406.306L342.43 482.143L163.263 522.043Z" fill="#15155F" stroke="#F9CEAD" stroke-width="37"/>
<path d="M351.392 760.544L588.549 761.8L509.696 595.961L431.921 595.581L351.392 760.544Z" fill="#15155F" stroke="#9783EA" stroke-width="37"/>
<path d="M621.96 745.911L770.744 561.33L591.984 519.558L543.128 580.133L621.96 745.911Z" fill="#15155F" stroke="#94BBFD" stroke-width="37"/>
<path d="M779.165 525.304L727.631 293.875L583.495 407.546L600.41 483.527L779.165 525.304Z" fill="#15155F" stroke="#CCF6FF" stroke-width="37"/>
<path d="M240.481 262.367L454.839 160.576L453.774 344.151L383.42 377.571L240.481 262.367Z" fill="#15155F" stroke="#FCEE8D" stroke-width="37"/>
<path d="M491.811 160.838L704.719 264.82L560.576 378.502L490.675 344.366L491.811 160.838Z" fill="#15155F" stroke="#D9D9BC" stroke-width="37"/>
<path d="M747.832 558.785C757.382 546.939 761.019 531.389 757.712 516.536L711.717 309.959C708.41 295.106 698.52 282.568 684.845 275.893L494.66 183.054C480.986 176.38 465.016 176.295 451.272 182.824L260.109 273.633C246.365 280.162 236.342 292.595 232.877 307.411L184.686 513.488C181.221 528.304 184.692 543.892 194.116 555.839L325.186 722.002C334.61 733.949 348.961 740.954 364.177 741.035L575.81 742.161C591.026 742.242 605.451 735.39 615.001 723.544L747.832 558.785Z" fill="#101056"/>
</g>
<mask id="mask1_431_289" style="mask-type:alpha" maskUnits="userSpaceOnUse" x="290" y="281" width="377" height="371">
<path d="M650.685 543.673C664.055 527.089 669.146 505.319 664.517 484.525L641.704 382.069C637.075 361.275 623.228 343.721 604.084 334.376L509.757 288.331C490.614 278.986 468.257 278.867 449.015 288.008L354.203 333.047C334.961 342.188 320.928 359.593 316.078 380.336L292.177 482.544C287.326 503.287 292.185 525.111 305.378 541.836L370.386 624.249C383.579 640.974 403.67 650.782 424.973 650.895L529.937 651.453C551.239 651.567 571.434 641.974 584.804 625.389L650.685 543.673Z" fill="#15155F"/>
</mask>
<g mask="url(#mask1_431_289)">
<path d="M380.791 549.57L369.623 572.461L355.95 555.111L380.791 549.57Z" fill="#101056" stroke="#F6A6DA" stroke-width="108"/>
<path d="M357.405 444.124L332.526 449.674L337.566 428.122L357.405 444.124Z" fill="#101056" stroke="#F9CEAD" stroke-width="108"/>
<path d="M477.819 596.968L466.654 619.851L488.741 619.964L477.819 596.968Z" fill="#101056" stroke="#9783EA" stroke-width="108"/>
<path d="M575.335 550.58L586.259 573.579L600.119 556.372L575.335 550.58Z" fill="#101056" stroke="#94BBFD" stroke-width="108"/>
<path d="M599.913 445.392L624.71 451.187L619.912 429.605L599.913 445.392Z" fill="#101056" stroke="#CCF6FF" stroke-width="108"/>
<path d="M425.206 360.07L405.337 344.045L425.359 334.527L425.206 360.07Z" fill="#101056" stroke="#FCEE8D" stroke-width="108"/>
<path d="M533.136 360.52L533.298 335.094L553.092 344.766L533.136 360.52Z" fill="#101056" stroke="#D9D9BC" stroke-width="108"/>
<path d="M547.385 501.502C553.115 494.395 555.297 485.064 553.313 476.153L544.476 436.465C542.492 427.554 536.558 420.031 528.353 416.026L491.814 398.189C483.61 394.184 474.028 394.133 465.782 398.051L429.055 415.497C420.809 419.415 414.795 426.874 412.716 435.764L403.458 475.356C401.379 484.246 403.461 493.598 409.115 500.766L434.297 532.69C439.951 539.858 448.562 544.061 457.691 544.11L498.35 544.326C507.48 544.375 516.135 540.263 521.865 533.156L547.385 501.502Z" fill="#101056"/>
</g>
</svg>
