<svg width="944" height="943" viewBox="0 0 944 943" fill="none" xmlns="http://www.w3.org/2000/svg">
<path d="M832.533 587.125C845.904 570.541 850.995 548.771 846.365 527.977L787.044 261.551C782.414 240.757 768.568 223.203 749.424 213.859L504.138 94.1232C484.994 84.7783 462.637 84.6594 443.395 93.8L196.848 210.919C177.606 220.06 163.574 237.465 158.723 258.208L96.5712 523.988C91.7205 544.731 96.5794 566.555 109.773 583.28L278.817 797.584C292.01 814.309 312.102 824.117 333.404 824.23L606.351 825.682C627.653 825.796 647.848 816.203 661.218 799.618L832.533 587.125Z" fill="white"/>
<mask id="mask0_434_846" style="mask-type:alpha" maskUnits="userSpaceOnUse" x="147" y="141" width="649" height="636">
<path d="M779.782 574.788C793.152 558.204 798.243 536.434 793.613 515.64L744.51 295.104C739.88 274.31 726.034 256.757 706.89 247.412L503.853 148.3C484.709 138.955 462.352 138.836 443.11 147.977L239.029 244.923C219.787 254.063 205.755 271.469 200.904 292.212L149.457 512.213C144.607 532.956 149.466 554.78 162.659 571.505L302.586 748.897C315.78 765.622 335.871 775.43 357.174 775.543L583.107 776.745C604.41 776.858 624.604 767.265 637.975 750.681L779.782 574.788Z" fill="#15155F"/>
</mask>
<g mask="url(#mask0_434_846)">
<path d="M318.478 743.689L171.633 557.524L350.812 517.625L399.004 578.731L318.478 743.689Z" fill="white" stroke="#F6A6DA" stroke-width="37"/>
<path d="M163.591 521.415L217.591 290.495L360.492 405.679L342.758 481.515L163.591 521.415Z" fill="white" stroke="#F9CEAD" stroke-width="37"/>
<path d="M351.72 759.917L588.878 761.172L510.024 595.333L432.249 594.953L351.72 759.917Z" fill="white" stroke="#9783EA" stroke-width="37"/>
<path d="M622.289 745.283L771.072 560.703L592.312 518.93L543.456 579.505L622.289 745.283Z" fill="white" stroke="#94BBFD" stroke-width="37"/>
<path d="M779.493 524.676L727.959 293.247L583.823 406.918L600.739 482.899L779.493 524.676Z" fill="white" stroke="#CCF6FF" stroke-width="37"/>
<path d="M240.809 261.739L455.167 159.949L454.102 343.523L383.748 376.943L240.809 261.739Z" fill="white" stroke="#FCEE8D" stroke-width="37"/>
<path d="M492.139 160.21L705.047 264.193L560.904 377.874L491.003 343.739L492.139 160.21Z" fill="white" stroke="#D9D9BC" stroke-width="37"/>
<path d="M748.16 558.157C757.711 546.311 761.347 530.761 758.04 515.908L712.045 309.331C708.738 294.479 698.848 281.94 685.174 275.265L494.988 182.427C481.314 175.752 465.344 175.667 451.6 182.196L260.437 273.006C246.693 279.535 236.67 291.967 233.205 306.784L185.014 512.86C181.55 527.677 185.02 543.264 194.444 555.211L325.514 721.374C334.938 733.321 349.289 740.327 364.505 740.408L576.138 741.534C591.354 741.614 605.779 734.762 615.329 722.916L748.16 558.157Z" fill="white"/>
</g>
<mask id="mask1_434_846" style="mask-type:alpha" maskUnits="userSpaceOnUse" x="290" y="280" width="377" height="371">
<path d="M651.013 543.046C664.384 526.462 669.475 504.691 664.845 483.898L642.032 381.441C637.403 360.648 623.556 343.094 604.413 333.749L510.086 287.704C490.942 278.359 468.585 278.24 449.343 287.381L354.531 332.42C335.289 341.56 321.257 358.966 316.406 379.709L292.505 481.917C287.654 502.66 292.513 524.483 305.706 541.209L370.714 623.621C383.907 640.347 403.998 650.154 425.301 650.268L530.265 650.826C551.567 650.939 571.762 641.346 585.133 624.762L651.013 543.046Z" fill="#15155F"/>
</mask>
<g mask="url(#mask1_434_846)">
<path d="M381.12 548.943L369.951 571.833L356.278 554.484L381.12 548.943Z" fill="white" stroke="#F6A6DA" stroke-width="108"/>
<path d="M357.733 443.496L332.854 449.046L337.894 427.494L357.733 443.496Z" fill="white" stroke="#F9CEAD" stroke-width="108"/>
<path d="M478.147 596.341L466.983 619.223L489.069 619.336L478.147 596.341Z" fill="white" stroke="#9783EA" stroke-width="108"/>
<path d="M575.664 549.953L586.587 572.951L600.447 555.744L575.664 549.953Z" fill="white" stroke="#94BBFD" stroke-width="108"/>
<path d="M600.241 444.764L625.038 450.56L620.24 428.978L600.241 444.764Z" fill="white" stroke="#CCF6FF" stroke-width="108"/>
<path d="M425.534 359.443L405.665 343.418L425.687 333.899L425.534 359.443Z" fill="white" stroke="#FCEE8D" stroke-width="108"/>
<path d="M533.464 359.892L533.626 334.467L553.42 344.139L533.464 359.892Z" fill="white" stroke="#D9D9BC" stroke-width="108"/>
<path d="M547.713 500.874C553.443 493.767 555.625 484.437 553.641 475.525L544.804 435.837C542.82 426.926 536.886 419.403 528.681 415.398L492.143 397.561C483.938 393.556 474.356 393.506 466.11 397.423L429.384 414.869C421.137 418.787 415.123 426.246 413.044 435.136L403.786 474.728C401.707 483.618 403.789 492.97 409.444 500.139L434.625 532.062C440.279 539.23 448.89 543.433 458.019 543.482L498.678 543.698C507.808 543.747 516.463 539.635 522.193 532.528L547.713 500.874Z" fill="white"/>
</g>
</svg>
