<svg width="915" height="914" viewBox="0 0 915 914" fill="none" xmlns="http://www.w3.org/2000/svg">
<path d="M806.293 569.778C819.663 553.194 824.754 531.423 820.125 510.63L763.081 254.431C758.451 233.638 744.605 216.084 725.461 206.739L489.591 91.6002C470.448 82.2553 448.09 82.1364 428.848 91.277L191.767 203.9C172.525 213.04 158.492 230.446 153.641 251.189L93.8753 506.766C89.0246 527.509 93.8836 549.332 107.077 566.058L269.632 772.135C282.825 788.86 302.916 798.668 324.219 798.781L586.687 800.177C607.99 800.291 628.184 790.698 641.555 774.113L806.293 569.778Z" fill="white"/>
<mask id="mask0_437_1103" style="mask-type:alpha" maskUnits="userSpaceOnUse" x="133" y="126" width="648" height="637">
<path d="M765.297 560.19C778.667 543.605 783.758 521.835 779.128 501.042L730.025 280.505C725.396 259.712 711.549 242.158 692.405 232.813L489.368 133.701C470.224 124.356 447.867 124.238 428.625 133.378L224.544 230.324C205.302 239.465 191.27 256.87 186.419 277.613L134.973 497.615C130.122 518.358 134.981 540.181 148.174 556.907L288.102 734.298C301.295 751.023 321.386 760.831 342.689 760.944L568.622 762.146C589.925 762.26 610.119 752.666 623.49 736.082L765.297 560.19Z" fill="#15155F"/>
</mask>
<g mask="url(#mask0_437_1103)">
<path d="M307.059 740.832L144.841 534.988L340.845 491.269L395.18 560.227L307.059 740.832Z" fill="#F6A6DA" stroke="white" stroke-width="20"/>
<path d="M140.501 515.47L200.22 260.091L356.506 386.155L336.491 471.749L140.501 515.47Z" fill="#F9CEAD" stroke="white" stroke-width="20"/>
<path d="M325.021 749.606L587.074 750.941L500.858 569.408L413.142 568.997L325.021 749.606Z" fill="#9783EA" stroke="white" stroke-width="20"/>
<path d="M605.123 742.334L769.567 538.176L574.042 492.485L518.93 560.868L605.123 742.334Z" fill="#94BBFD" stroke="white" stroke-width="20"/>
<path d="M774.116 518.699L717.225 262.778L559.54 387.248L578.6 473.004L774.116 518.699Z" fill="#CCF6FF" stroke="white" stroke-width="20"/>
<path d="M212.758 244.56L449.633 131.948L448.427 332.913L369.085 370.646L212.758 244.56Z" fill="#FCEE8D" stroke="white" stroke-width="20"/>
<path d="M469.608 132.116L704.849 247.065L547.156 371.548L468.324 333.032L469.608 132.116Z" fill="#D9D9BC" stroke="white" stroke-width="20"/>
<path d="M563.055 503.985C572.605 492.139 576.242 476.589 572.935 461.737L559.986 403.578C556.679 388.726 546.788 376.187 533.114 369.512L479.57 343.375C465.896 336.7 449.927 336.615 436.183 343.144L382.364 368.71C368.619 375.239 358.596 387.672 355.131 402.488L341.564 460.506C338.099 475.322 341.57 490.91 350.994 502.857L387.895 549.638C397.318 561.585 411.669 568.59 426.885 568.671L486.467 568.988C501.683 569.069 516.108 562.217 525.659 550.371L563.055 503.985Z" fill="white"/>
</g>
</svg>
