<svg width="943" height="943" viewBox="0 0 943 943" fill="none" xmlns="http://www.w3.org/2000/svg">
<path d="M832.494 587.034C845.865 570.45 850.956 548.68 846.326 527.886L787.005 261.46C782.375 240.666 768.529 223.113 749.385 213.768L504.099 94.0324C484.955 84.6875 462.598 84.5686 443.356 93.7092L196.809 210.828C177.567 219.969 163.535 237.374 158.684 258.117L96.5321 523.898C91.6814 544.641 96.5404 566.464 109.734 583.189L278.778 797.493C291.971 814.219 312.063 824.026 333.365 824.14L606.312 825.592C627.614 825.705 647.809 816.112 661.179 799.527L832.494 587.034Z" fill="white"/>
<path d="M779.744 574.697C793.114 558.113 798.205 536.343 793.575 515.549L744.472 295.013C739.842 274.22 725.996 256.666 706.852 247.321L503.815 148.209C484.671 138.864 462.314 138.745 443.072 147.886L238.991 244.832C219.749 253.973 205.717 271.378 200.866 292.121L149.419 512.123C144.569 532.866 149.428 554.689 162.621 571.414L302.548 748.806C315.742 765.531 335.833 775.339 357.136 775.452L583.069 776.654C604.371 776.767 624.566 767.174 637.937 750.59L779.744 574.697Z" fill="#15155F"/>
<mask id="mask0_433_813" style="mask-type:alpha" maskUnits="userSpaceOnUse" x="147" y="141" width="649" height="636">
<path d="M779.744 574.697C793.114 558.113 798.205 536.343 793.575 515.549L744.472 295.013C739.842 274.22 725.996 256.666 706.852 247.321L503.815 148.209C484.671 138.864 462.314 138.745 443.072 147.886L238.991 244.832C219.749 253.973 205.717 271.378 200.866 292.121L149.419 512.123C144.569 532.866 149.428 554.689 162.621 571.414L302.548 748.806C315.742 765.531 335.833 775.339 357.136 775.452L583.069 776.654C604.371 776.767 624.566 767.174 637.937 750.59L779.744 574.697Z" fill="#15155F"/>
</mask>
<g mask="url(#mask0_433_813)">
<path d="M321.506 755.339L159.288 549.496L355.292 505.777L409.627 574.735L321.506 755.339Z" fill="#F6A6DA" stroke="#F6A6DA" stroke-width="20"/>
<path d="M154.947 529.977L214.667 274.599L370.953 400.663L350.937 486.257L154.947 529.977Z" fill="#F9CEAD" stroke="#F9CEAD" stroke-width="20"/>
<path d="M339.467 764.114L601.521 765.449L515.304 583.916L427.589 583.505L339.467 764.114Z" fill="#9783EA" stroke="#9783EA" stroke-width="20"/>
<path d="M619.57 756.842L784.014 552.684L588.489 506.993L533.376 575.376L619.57 756.842Z" fill="#94BBFD" stroke="#94BBFD" stroke-width="20"/>
<path d="M788.563 533.207L731.671 277.286L573.987 401.756L593.047 487.512L788.563 533.207Z" fill="#CCF6FF" stroke="#CCF6FF" stroke-width="20"/>
<path d="M227.205 259.068L464.079 146.456L462.873 347.42L383.531 385.154L227.205 259.068Z" fill="#FCEE8D" stroke="#FCEE8D" stroke-width="20"/>
<path d="M484.054 146.624L719.296 261.572L561.602 386.055L482.771 347.539L484.054 146.624Z" fill="#D9D9BC" stroke="#D9D9BC" stroke-width="20"/>
<path d="M577.502 518.493C587.053 506.647 590.689 491.097 587.382 476.245L574.433 418.086C571.126 403.234 561.235 390.695 547.561 384.02L494.018 357.883C480.344 351.208 464.374 351.123 450.63 357.652L396.811 383.218C383.067 389.747 373.043 402.18 369.579 416.996L356.011 475.014C352.547 489.83 356.017 505.418 365.441 517.365L402.342 564.146C411.766 576.092 426.117 583.098 441.333 583.179L500.915 583.496C516.131 583.577 530.555 576.724 540.106 564.878L577.502 518.493Z" fill="white"/>
</g>
</svg>
