<svg width="944" height="943" viewBox="0 0 944 943" fill="none" xmlns="http://www.w3.org/2000/svg">
<path d="M832.701 587.088C846.072 570.503 851.163 548.733 846.533 527.94L787.212 261.513C782.582 240.72 768.736 223.166 749.592 213.821L504.306 94.0856C485.162 84.7407 462.805 84.6218 443.563 93.7624L197.016 210.881C177.774 220.022 163.742 237.427 158.891 258.171L96.7391 523.951C91.8884 544.694 96.7474 566.517 109.941 583.243L278.985 797.546C292.178 814.272 312.27 824.079 333.572 824.193L606.519 825.645C627.821 825.758 648.016 816.165 661.386 799.581L832.701 587.088Z" fill="#101056"/>
<path d="M779.951 574.751C793.321 558.167 798.412 536.396 793.782 515.603L744.679 295.067C740.049 274.273 726.203 256.719 707.059 247.374L504.022 148.263C484.878 138.918 462.521 138.799 443.279 147.939L239.198 244.885C219.956 254.026 205.924 271.432 201.073 292.175L149.626 512.176C144.776 532.919 149.635 554.742 162.828 571.468L302.755 748.859C315.949 765.585 336.04 775.392 357.343 775.506L583.276 776.708C604.578 776.821 624.773 767.228 638.144 750.643L779.951 574.751Z" fill="#15155F"/>
<mask id="mask0_431_256" style="mask-type:alpha" maskUnits="userSpaceOnUse" x="147" y="141" width="649" height="636">
<path d="M779.951 574.751C793.321 558.167 798.412 536.396 793.782 515.603L744.679 295.067C740.049 274.273 726.203 256.719 707.059 247.374L504.022 148.263C484.878 138.918 462.521 138.799 443.279 147.939L239.198 244.885C219.956 254.026 205.924 271.432 201.073 292.175L149.626 512.176C144.776 532.919 149.635 554.742 162.828 571.468L302.755 748.859C315.949 765.585 336.04 775.392 357.343 775.506L583.276 776.708C604.578 776.821 624.773 767.228 638.144 750.643L779.951 574.751Z" fill="#15155F"/>
</mask>
<g mask="url(#mask0_431_256)">
<path d="M320.01 741.499L174.537 556.903L352.132 517.29L399.855 577.857L320.01 741.499Z" fill="#15155F" stroke="#F6A6DA" stroke-width="37"/>
<path d="M166.51 520.787L220.066 291.764L361.671 405.986L344.088 481.174L166.51 520.787Z" fill="#15155F" stroke="#F9CEAD" stroke-width="37"/>
<path d="M353.246 757.733L588.25 758.93L510.131 594.447L433.092 594.086L353.246 757.733Z" fill="#15155F" stroke="#9783EA" stroke-width="37"/>
<path d="M621.65 743.024L769.12 559.939L591.958 518.54L543.552 578.601L621.65 743.024Z" fill="#15155F" stroke="#94BBFD" stroke-width="37"/>
<path d="M777.541 523.906L726.521 294.399L583.648 407.177L600.39 482.503L777.541 523.906Z" fill="#15155F" stroke="#CCF6FF" stroke-width="37"/>
<path d="M243.273 262.994L455.707 162.001L454.614 344.086L384.913 377.235L243.273 262.994Z" fill="#15155F" stroke="#FCEE8D" stroke-width="37"/>
<path d="M492.674 162.251L703.628 265.332L560.744 378.124L491.511 344.298L492.674 162.251Z" fill="#15155F" stroke="#D9D9BC" stroke-width="37"/>
<path d="M574.905 517.564C584.456 505.719 588.092 490.168 584.785 475.316L572.379 419.596C569.072 404.744 559.182 392.205 545.507 385.53L494.209 360.489C480.535 353.814 464.566 353.729 450.821 360.258L399.259 384.752C385.515 391.281 375.492 403.714 372.027 418.53L359.029 474.115C355.564 488.931 359.035 504.519 368.458 516.466L403.812 561.285C413.235 573.232 427.587 580.237 442.803 580.318L499.886 580.622C515.102 580.703 529.527 573.85 539.077 562.005L574.905 517.564Z" fill="#101056"/>
</g>
</svg>
