<svg width="943" height="943" viewBox="0 0 943 943" fill="none" xmlns="http://www.w3.org/2000/svg">
<path d="M832.197 587.088C845.567 570.504 850.658 548.733 846.028 527.94L786.708 261.513C782.078 240.72 768.232 223.166 749.088 213.821L503.801 94.0858C484.658 84.741 462.301 84.622 443.059 93.7627L196.512 210.882C177.27 220.022 163.238 237.428 158.387 258.171L96.2348 523.951C91.384 544.694 96.243 566.517 109.436 583.243L278.48 797.547C291.674 814.272 311.765 824.08 333.068 824.193L606.014 825.645C627.317 825.758 647.512 816.165 660.882 799.581L832.197 587.088Z" fill="#101056"/>
<path d="M779.446 574.751C792.817 558.167 797.908 536.397 793.278 515.603L744.175 295.067C739.545 274.273 725.698 256.72 706.555 247.375L503.517 148.263C484.374 138.918 462.016 138.799 442.774 147.94L238.694 244.886C219.452 254.026 205.419 271.432 200.569 292.175L149.122 512.176C144.271 532.919 149.13 554.742 162.323 571.468L302.251 748.859C315.444 765.585 335.536 775.393 356.838 775.506L582.772 776.708C604.074 776.821 624.269 767.228 637.639 750.644L779.446 574.751Z" fill="#15155F"/>
<mask id="mask0_428_2553" style="mask-type:alpha" maskUnits="userSpaceOnUse" x="147" y="141" width="648" height="636">
<path d="M779.446 574.751C792.817 558.167 797.908 536.397 793.278 515.603L744.175 295.067C739.545 274.273 725.698 256.72 706.555 247.375L503.517 148.263C484.374 138.918 462.016 138.799 442.774 147.94L238.694 244.886C219.452 254.026 205.419 271.432 200.569 292.175L149.122 512.176C144.271 532.919 149.13 554.742 162.323 571.468L302.251 748.859C315.444 765.585 335.536 775.393 356.838 775.506L582.772 776.708C604.074 776.821 624.269 767.228 637.639 750.644L779.446 574.751Z" fill="#15155F"/>
</mask>
<g mask="url(#mask0_428_2553)">
<path d="M409.329 574.788L321.209 755.393L158.991 549.55L354.994 505.83L409.329 574.788Z" fill="#F6A6DA" stroke="#F6A6DA" stroke-width="20"/>
<path d="M350.64 486.31L154.65 530.031L214.37 274.653L370.656 400.717L350.64 486.31Z" fill="#F9CEAD" stroke="#F9CEAD" stroke-width="20"/>
<path d="M427.292 583.558L339.17 764.167L601.223 765.502L515.007 583.969L427.292 583.558Z" fill="#9783EA" stroke="#9783EA" stroke-width="20"/>
<path d="M533.079 575.429L619.272 756.895L783.716 552.737L588.191 507.047L533.079 575.429Z" fill="#94BBFD" stroke="#94BBFD" stroke-width="20"/>
<path d="M592.749 487.566L788.266 533.261L731.374 277.339L573.689 401.81L592.749 487.566Z" fill="#CCF6FF" stroke="#CCF6FF" stroke-width="20"/>
<path d="M383.234 385.207L226.908 259.121L463.782 146.509L462.576 347.474L383.234 385.207Z" fill="#FCEE8D" stroke="#FCEE8D" stroke-width="20"/>
<path d="M482.474 347.593L483.757 146.677L718.999 261.626L561.305 386.109L482.474 347.593Z" fill="#D9D9BC" stroke="#D9D9BC" stroke-width="20"/>
<path d="M577.205 518.547C586.755 506.701 590.392 491.151 587.085 476.298L574.135 418.14C570.828 403.287 560.938 390.749 547.264 384.074L493.72 357.937C480.046 351.262 464.077 351.177 450.332 357.706L396.514 383.272C382.769 389.801 372.746 402.233 369.281 417.05L355.714 475.067C352.249 489.884 355.72 505.472 365.144 517.418L402.045 564.199C411.468 576.146 425.819 583.151 441.035 583.232L500.617 583.549C515.833 583.63 530.258 576.778 539.808 564.932L577.205 518.547Z" fill="#101056"/>
</g>
</svg>
