<svg width="123" height="16" viewBox="0 0 123 16" fill="none" xmlns="http://www.w3.org/2000/svg">
<path d="M1.99128 2.44833H0V13.5729H1.99128V9.01714H7.98631V7.02531H1.99128V2.44833ZM9.97759 15.5648H1.99128V13.5729H9.97759V15.5648ZM9.97759 2.44833H1.99128V0.456492H9.97759V2.44833Z" fill="#0B0C0D"/>
<path d="M16.0665 15.5648H18.0789V2.13048H23.1207V0.435303H11.0247V2.13048H16.0665V15.5648Z" fill="#0B0C0D"/>
<path d="M24.7988 15.5648H26.8113V8.63573H34.7764V15.5648H36.7889V0.435303H34.7764V6.94055H26.8113V0.435303H24.7988V15.5648Z" fill="#0B0C0D"/>
<path d="M47.4555 0.435303L45.7889 2.9353L44.1222 0.435303H47.4555Z" fill="black"/>
<path d="M45.7889 7.27741L45.364 7.9353L45.7889 8.5932L46.2137 7.9353L45.7889 7.27741Z" fill="black"/>
<path fill-rule="evenodd" clip-rule="evenodd" d="M45.7889 5.63267L44.2529 7.9353L45.7889 10.2379L47.3248 7.9353L45.7889 5.63267ZM45.7889 6.29057L44.7104 7.9353L45.7889 9.58004L46.8673 7.9353L45.7889 6.29057Z" fill="black"/>
<path fill-rule="evenodd" clip-rule="evenodd" d="M43.5993 7.9353L45.7889 4.64583L47.9784 7.9353L45.7889 11.2248L43.5993 7.9353Z" fill="black"/>
<path fill-rule="evenodd" clip-rule="evenodd" d="M47.4555 5.4353L49.1222 2.9353H45.7889H42.4555L44.1222 5.4353H40.7889L42.4555 7.9353L40.7889 10.4353H44.1222L42.4555 12.9353H45.7889L44.1222 15.4353H47.4555L45.7889 12.9353H49.1222L47.4555 10.4353H50.7889L49.1222 7.9353L50.7889 5.4353H47.4555ZM47.4555 5.4353L45.7889 2.9353L44.1222 5.4353L42.4555 7.9353L44.1222 10.4353L45.7889 12.9353L47.4555 10.4353L49.1222 7.9353L47.4555 5.4353Z" fill="black"/>
<path d="M64.7665 13.5729V15.5648H56.7802V13.5729H64.7665ZM54.7889 0.456493H56.7802V13.5729H54.7889V0.456493Z" fill="#0B0C0D"/>
<path d="M70.7494 2.44833V0.456493H74.732V2.44833H70.7494ZM70.7494 4.44016H68.7581V2.44833H70.7494V4.44016ZM78.7145 4.44016V15.5648H76.7233V11.009H68.7581V15.5648H66.7669V4.44016H68.7581V9.01714H76.7233V4.44016H78.7145ZM74.732 4.44016V2.44833H76.7233V4.44016H74.732Z" fill="#0B0C0D"/>
<path d="M84.7986 15.5648H86.8111V2.13048H91.8528V0.435303H79.7569V2.13048H84.7986V15.5648Z" fill="#0B0C0D"/>
<path d="M96.8569 2.44833V0.456493H100.839V2.44833H96.8569ZM96.8569 4.44016H94.8656V2.44833H96.8569V4.44016ZM104.822 4.44016V15.5648H102.831V11.009H94.8656V15.5648H92.8743V4.44016H94.8656V9.01714H102.831V4.44016H104.822ZM100.839 4.44016V2.44833H102.831V4.44016H100.839Z" fill="#0B0C0D"/>
<path d="M107.517 15.5648H109.423V2.97807H109.466L114.19 15.5648H115.905L120.629 2.97807H120.672V15.5648H122.578V0.435303H119.824L115.037 13.1491L110.271 0.435303H107.517V15.5648Z" fill="#0B0C0D"/>
</svg>