<svg width="499" height="505" viewBox="0 0 499 505" fill="none" xmlns="http://www.w3.org/2000/svg">
<path d="M250.217 476.486L417.58 395.888L458.916 214.786L343.097 69.5542H157.338L41.5191 214.786L82.8544 395.888L250.217 476.486Z" fill="#15155F"/>
<path d="M249.737 328L302.287 302.693L315.266 245.829L278.9 200.227H220.574L184.208 245.829L197.186 302.693L249.737 328Z" fill="#15155F"/>
<path d="M66.6919 213.881L163.275 92.7724L214.71 199.571L182.256 240.26L66.6919 213.881Z" fill="#F6A6DA" stroke="#F6A6DA" stroke-width="10"/>
<path d="M172.28 88.4337L327.209 88.4338L275.795 195.226L223.714 195.226L172.28 88.4337Z" fill="#F9CEAD" stroke="#F9CEAD" stroke-width="10"/>
<path d="M64.4669 223.626L98.9482 374.679L191.63 300.713L180.033 250.005L64.4669 223.626Z" fill="#9783EA" stroke="#9783EA" stroke-width="10"/>
<path d="M105.191 382.489L244.744 449.679L244.726 331.136L197.838 308.545L105.191 382.489Z" fill="#94BBFD" stroke="#94BBFD" stroke-width="10"/>
<path d="M254.742 449.677L394.298 382.467L301.63 308.55L254.728 331.136L254.742 449.677Z" fill="#CCF6FF" stroke="#CCF6FF" stroke-width="10"/>
<path d="M336.191 92.7734L432.828 213.988L317.242 240.311L284.77 199.592L336.191 92.7734Z" fill="#FCEE8D" stroke="#FCEE8D" stroke-width="10"/>
<path d="M435.012 223.734L400.535 374.648L307.86 300.73L319.446 250.006L435.012 223.734Z" fill="#D9D9BC" stroke="#D9D9BC" stroke-width="10"/>
<path d="M249.737 328L302.287 302.693L315.266 245.829L278.9 200.227H220.574L184.208 245.829L197.186 302.693L249.737 328Z" fill="#15155F"/>
<path d="M79.9977 209.225L161.697 106.78L205.907 198.579L179.331 231.899L79.9977 209.225Z" fill="#15155F" stroke="#F6A6DA" stroke-width="25"/>
<path d="M184.217 95.9337L315.274 95.9338L271.081 187.726L228.427 187.726L184.217 95.9337Z" fill="#15155F" stroke="#F9CEAD" stroke-width="25"/>
<path d="M74.4352 233.594L103.603 361.369L183.268 297.79L173.772 256.268L74.4352 233.594Z" fill="#15155F" stroke="#9783EA" stroke-width="25"/>
<path d="M119.195 380.908L237.242 437.743L237.226 335.848L198.831 317.348L119.195 380.908Z" fill="#15155F" stroke="#94BBFD" stroke-width="25"/>
<path d="M262.241 437.741L380.291 380.888L300.637 317.352L262.228 335.848L262.241 437.741Z" fill="#15155F" stroke="#CCF6FF" stroke-width="25"/>
<path d="M337.77 106.785L419.52 209.327L320.169 231.953L293.571 198.6L337.77 106.785Z" fill="#15155F" stroke="#FCEE8D" stroke-width="25"/>
<path d="M425.044 233.692L395.882 361.343L316.221 297.805L325.707 256.274L425.044 233.692Z" fill="#15155F" stroke="#D9D9BC" stroke-width="25"/>
</svg>
