<svg width="131" height="133" viewBox="0 0 131 133" fill="none" xmlns="http://www.w3.org/2000/svg">
<path d="M65.8689 125.016L109.674 103.92L120.493 56.5194L90.1789 18.5067H41.5589L11.2448 56.5194L22.0638 103.92L65.8689 125.016Z" fill="#7C79AD"/>
<path d="M65.7431 86.1517L79.4975 79.5279L82.8946 64.6444L73.3762 52.7088H58.11L48.5917 64.6444L51.9887 79.5279L65.7431 86.1517Z" fill="#7C79AD"/>
<path d="M46.6412 59.0718L24.3822 53.991L42.336 31.4781L52.2429 52.0487L46.6412 59.0718Z" fill="#F6A6DA" stroke="#F6A6DA" stroke-width="10"/>
<path d="M61.2514 47.7083L51.3448 27.1395L80.1464 27.1395L70.2437 47.7083L61.2514 47.7083Z" fill="#F9CEAD" stroke="#F9CEAD" stroke-width="10"/>
<path d="M44.4175 68.8201L22.1573 63.739L28.567 91.8183L46.4189 77.5712L44.4175 68.8201Z" fill="#9783EA" stroke="#9783EA" stroke-width="10"/>
<path d="M52.6478 85.3923L34.8026 99.6352L60.7441 112.125L60.7405 89.2915L52.6478 85.3923Z" fill="#94BBFD" stroke="#94BBFD" stroke-width="10"/>
<path d="M70.741 89.2918L70.7439 112.125L96.6864 99.6305L78.8371 85.3931L70.741 89.2918Z" fill="#CCF6FF" stroke="#CCF6FF" stroke-width="10"/>
<path d="M79.2443 52.0541L89.1485 31.4801L107.115 54.0162L84.8523 59.0863L79.2443 52.0541Z" fill="#FCEE8D" stroke="#FCEE8D" stroke-width="10"/>
<path d="M87.0702 68.8225L109.33 63.7621L102.922 91.8127L85.0712 77.5746L87.0702 68.8225Z" fill="#D9D9BC" stroke="#D9D9BC" stroke-width="10"/>
<path d="M65.7431 86.1517L79.4975 79.5279L82.8946 64.6444L73.3762 52.7088H58.11L48.5917 64.6444L51.9887 79.5279L65.7431 86.1517Z" fill="#7C79AD"/>
<path d="M46.6412 59.0718L24.3822 53.991L42.336 31.4781L52.2429 52.0487L46.6412 59.0718Z" fill="#F6A6DA" stroke="#F6A6DA" stroke-width="10"/>
<path d="M61.2514 47.7083L51.3448 27.1395L80.1464 27.1395L70.2437 47.7083L61.2514 47.7083Z" fill="#F9CEAD" stroke="#F9CEAD" stroke-width="10"/>
<path d="M44.4175 68.8201L22.1573 63.739L28.567 91.8183L46.4189 77.5712L44.4175 68.8201Z" fill="#9783EA" stroke="#9783EA" stroke-width="10"/>
<path d="M52.6478 85.3923L34.8026 99.6352L60.7441 112.125L60.7405 89.2915L52.6478 85.3923Z" fill="#94BBFD" stroke="#94BBFD" stroke-width="10"/>
<path d="M70.741 89.2918L70.7439 112.125L96.6864 99.6305L78.8371 85.3931L70.741 89.2918Z" fill="#CCF6FF" stroke="#CCF6FF" stroke-width="10"/>
<path d="M79.2443 52.0541L89.1485 31.4801L107.115 54.0162L84.8523 59.0863L79.2443 52.0541Z" fill="#FCEE8D" stroke="#FCEE8D" stroke-width="10"/>
<path d="M87.0702 68.8225L109.33 63.7621L102.922 91.8127L85.0712 77.5746L87.0702 68.8225Z" fill="#D9D9BC" stroke="#D9D9BC" stroke-width="10"/>
</svg>
