<svg width="108" height="161" viewBox="0 0 108 161" fill="none" xmlns="http://www.w3.org/2000/svg">
<path d="M71.5789 0.25L53.6842 26.9167L35.7895 0.25H71.5789Z" fill="#FAF7F5"/>
<path d="M53.6842 73.2325L49.1228 80.25L53.6842 87.2675L58.2456 80.25L53.6842 73.2325Z" fill="#FAF7F5"/>
<path fill-rule="evenodd" clip-rule="evenodd" d="M53.6842 55.6886L37.193 80.25L53.6842 104.811L70.1754 80.25L53.6842 55.6886ZM53.6842 62.7061L42.1053 80.25L53.6842 97.7939L65.2632 80.25L53.6842 62.7061Z" fill="#FAF7F5"/>
<path fill-rule="evenodd" clip-rule="evenodd" d="M25.2632 80.25L53.6842 37.443L82.1053 80.25L53.6842 123.057L25.2632 80.25ZM30.1754 80.25L53.6842 45.1623L77.193 80.25L53.6842 115.338L30.1754 80.25Z" fill="#FAF7F5"/>
<path fill-rule="evenodd" clip-rule="evenodd" d="M71.5789 53.5833L89.4737 26.9167H53.6842H17.8947L35.7895 53.5833H0L17.8947 80.25L0 106.917H35.7895L17.8947 133.583H53.6842L35.7895 160.25H71.5789L53.6842 133.583H89.4737L71.5789 106.917H107.368L89.4737 80.25L107.368 53.5833H71.5789ZM71.5789 53.5833L53.6842 26.9167L35.7895 53.5833L17.8947 80.25L35.7895 106.917L53.6842 133.583L71.5789 106.917L89.4737 80.25L71.5789 53.5833Z" fill="#FAF7F5"/>
</svg>
