<svg width="905" height="113" viewBox="0 0 905 113" fill="none" xmlns="http://www.w3.org/2000/svg">
<path d="M74.4975 27.7868V36.0588H41.4095V27.7868H74.4975ZM82.7695 46.7068V36.0588H74.4975V46.7068H82.7695ZM82.7695 59.2028H57.9535V67.4748H74.4975V82.2588H82.7695V59.2028ZM74.4975 90.5308V82.2588H41.4095V90.5308H74.4975ZM33.1375 82.2588H41.4095V36.0588H33.1375V82.2588ZM132.507 82.2588V90.5308H99.3313V82.2588H132.507ZM91.0593 27.7868H99.3313V82.2588H91.0593V27.7868ZM132.507 27.7868H140.779V82.2588H132.507V27.7868ZM149.067 27.7868H157.339V90.5308H149.067V27.7868ZM182.197 36.0588V27.7868H198.741V36.0588H182.197ZM182.197 44.3308H173.925V36.0588H182.197V44.3308ZM215.285 44.3308V90.5308H207.013V71.6108H173.925V90.5308H165.653V44.3308H173.925V63.3388H207.013V44.3308H215.285ZM198.741 44.3308V36.0588H207.013V44.3308H198.741ZM248.433 82.2588H281.609V90.5308H240.161V27.7868H281.609V36.0588H248.433V82.1708V82.2588ZM281.609 36.0588V82.2588H289.881V36.0588H281.609ZM306.441 36.0588H298.169V82.2588H306.441V63.3388H331.345V55.0668H306.441V36.1468V36.0588ZM339.617 90.5308H306.441V82.2588H339.617V90.5308ZM339.617 36.0588H306.441V27.7868H339.617V36.0588ZM389.375 82.2588V90.5308H356.199V82.2588H389.375ZM347.927 27.7868H356.199V82.2588H347.927V27.7868ZM430.814 36.0588V27.7868H447.358V36.0588H430.814ZM430.814 44.3308H422.542V36.0588H430.814V44.3308ZM463.902 44.3308V90.5308H455.63V71.6108H422.542V90.5308H414.27V44.3308H422.542V63.3388H455.63V44.3308H463.902ZM447.358 44.3308V36.0588H455.63V44.3308H447.358ZM513.64 27.7868V36.0588H480.464V59.1148H513.64V67.3868H480.464V90.5308H472.192V27.7868H513.64ZM513.64 36.0588H521.912V59.1148H513.64V36.0588ZM571.648 82.2588V90.5308H538.472V82.2588H571.648ZM530.2 27.7868H538.472V82.2588H530.2V27.7868ZM579.958 27.7868H588.23V90.5308H579.958V27.7868ZM637.904 27.7868V36.0588H604.816V27.7868H637.904ZM637.904 44.3308V36.0588H646.176V44.3308H637.904ZM646.176 82.2588H637.904V73.9868H646.176V82.2588ZM604.816 90.5308V82.2588H637.904V90.5308H604.816ZM596.544 36.0588H604.816V82.2588H596.544V36.0588ZM671.01 36.0588V27.7868H687.554V36.0588H671.01ZM671.01 44.3308H662.738V36.0588H671.01V44.3308ZM704.098 44.3308V90.5308H695.826V71.6108H662.738V90.5308H654.466V44.3308H662.738V63.3388H695.826V44.3308H704.098ZM687.554 44.3308V36.0588H695.826V44.3308H687.554ZM728.931 36.0588V44.3308H720.659V90.5308H712.387V27.7868H720.659V36.0588H728.931ZM762.107 27.7868V90.5308H753.835V82.2588H745.563V73.9868H753.835V27.7868H762.107ZM728.931 52.6028V44.3308H737.203V52.6028H728.931ZM737.203 73.9868V52.6028H745.475V73.9868H737.203ZM795.299 90.5308H787.027V36.0588H770.395V27.7868H811.931V36.0588H795.299V90.5308ZM828.511 36.0588H820.239V82.2588H828.511V63.3388H853.415V55.0668H828.511V36.1468V36.0588ZM861.687 90.5308H828.511V82.2588H861.687V90.5308ZM861.687 36.0588H828.511V27.7868H861.687V36.0588Z" fill="#E573E5"/>
<path d="M868.722 35.3515C1006.76 94.1076 709.518 92.7416 457.647 95.3006C205.776 97.8596 1.57882 122.853 0.944079 60.3779C0.821485 48.3114 141.638 8.16933 393.51 5.61035C604.03 3.47149 890.828 13.888 890.213 35.4504" stroke="#FAF7F5"/>
</svg>
