<svg width="932" height="111" viewBox="0 0 932 111" fill="none" xmlns="http://www.w3.org/2000/svg">
<path d="M56.584 25.7809V34.0529H23.408V57.1089H56.584V65.3809H23.408V88.5249H15.136V25.7809H56.584ZM56.584 34.0529H64.856V57.1089H56.584V34.0529ZM114.68 34.0529H122.952V53.0609H114.68V34.0529ZM114.68 53.0609V61.3329H122.952V88.5249H114.68V69.6049H106.408V61.3329H81.5038V88.5249H73.1438V25.7809H114.68V34.0529H81.5038V53.0609H114.68ZM147.87 80.2529H139.598V71.9809H147.87V80.2529ZM172.686 88.5249H147.87V80.2529H172.686V88.5249ZM139.598 71.9809H131.238V42.3249H139.598V71.9809ZM172.686 80.2529H181.046V71.9809H172.686V80.2529ZM181.046 71.9809H189.318V42.3249H181.046V71.9809ZM172.686 34.0529H181.046V42.3249H172.686V34.0529ZM147.87 25.7809H172.686V34.0529H147.87V25.7809ZM147.87 34.0529H139.598V42.3249H147.87V34.0529ZM230.669 25.7809H238.941V80.2529H230.669V25.7809ZM230.669 80.2529V88.5249H205.853V80.2529H230.669ZM205.853 80.2529H197.581V63.7089H205.853V80.2529ZM255.525 34.0529H247.253V80.2529H255.525V61.3329H280.429V53.0609H255.525V34.1409V34.0529ZM288.701 88.5249H255.525V80.2529H288.701V88.5249ZM288.701 34.0529H255.525V25.7809H288.701V34.0529ZM338.371 25.7809V34.0529H305.283V25.7809H338.371ZM338.371 42.3249V34.0529H346.643V42.3249H338.371ZM346.643 80.2529H338.371V71.9809H346.643V80.2529ZM305.283 88.5249V80.2529H338.371V88.5249H305.283ZM297.011 34.0529H305.283V80.2529H297.011V34.0529ZM379.837 88.5249H371.565V34.0529H354.933V25.7809H396.469V34.0529H379.837V88.5249ZM421.363 80.2529V71.9809H429.635V80.2529H421.363ZM462.811 80.2529V61.3329H471.083V80.2529H462.811ZM462.811 42.3249V34.0529H471.083V42.3249H462.811ZM421.363 53.0609V34.0529H429.635V53.0609H421.363ZM429.635 61.3329V53.0609H462.811V61.3329H429.635ZM429.635 34.0529V25.7809H462.811V34.0529H429.635ZM429.635 88.5249V80.2529H462.811V88.5249H429.635ZM520.818 80.2529V88.5249H487.642V80.2529H520.818ZM479.37 25.7809H487.642V80.2529H479.37V25.7809ZM520.818 25.7809H529.09V80.2529H520.818V25.7809ZM578.826 34.0529H587.098V53.0609H578.826V34.0529ZM578.826 53.0609V61.3329H545.65V80.2529H578.826V88.5249H537.378V25.7809H578.826V34.0529H545.65V53.0609H578.826ZM578.826 61.3329H587.098V80.2529H578.826V61.3329ZM620.29 80.2529V71.9809H628.562V80.2529H620.29ZM620.29 50.5969V71.9809H612.018V50.5969H620.29ZM612.018 42.3249V50.5969H603.658V88.5249H595.386V25.7809H603.658V42.3249H612.018ZM636.834 50.5969V71.9809H628.562V50.5969H636.834ZM645.194 42.3249V25.7809H653.466V88.5249H645.194V50.5969H636.834V42.3249H645.194ZM636.834 50.5969V42.3249H645.194V50.5969H636.834ZM661.73 25.7809H670.002V88.5249H661.73V25.7809ZM678.316 80.2529V71.9809H686.588V80.2529H678.316ZM719.764 80.2529V61.3329H728.036V80.2529H719.764ZM719.764 42.3249V34.0529H728.036V42.3249H719.764ZM678.316 53.0609V34.0529H686.588V53.0609H678.316ZM686.588 61.3329V53.0609H719.764V61.3329H686.588ZM686.588 34.0529V25.7809H719.764V34.0529H686.588ZM686.588 88.5249V80.2529H719.764V88.5249H686.588ZM736.324 80.2529V71.9809H744.596V80.2529H736.324ZM777.772 80.2529V61.3329H786.044V80.2529H777.772ZM777.772 42.3249V34.0529H786.044V42.3249H777.772ZM736.324 53.0609V34.0529H744.596V53.0609H736.324ZM744.596 61.3329V53.0609H777.772V61.3329H744.596ZM744.596 34.0529V25.7809H777.772V34.0529H744.596ZM744.596 88.5249V80.2529H777.772V88.5249H744.596ZM794.331 25.7809H802.603V88.5249H794.331V25.7809ZM827.549 80.2529H819.277V71.9809H827.549V80.2529ZM852.365 88.5249H827.549V80.2529H852.365V88.5249ZM819.277 71.9809H810.917V42.3249H819.277V71.9809ZM852.365 80.2529H860.725V71.9809H852.365V80.2529ZM860.725 71.9809H868.997V42.3249H860.725V71.9809ZM852.365 34.0529H860.725V42.3249H852.365V34.0529ZM827.549 25.7809H852.365V34.0529H827.549V25.7809ZM827.549 34.0529H819.277V42.3249H827.549V34.0529ZM893.805 34.0529V42.3249H885.533V88.5249H877.261V25.7809H885.533V34.0529H893.805ZM926.981 25.7809V88.5249H918.709V80.2529H910.437V71.9809H918.709V25.7809H926.981ZM893.805 50.5969V42.3249H902.077V50.5969H893.805ZM902.077 71.9809V50.5969H910.349V71.9809H902.077Z" fill="#E573E5"/>
<path d="M882.984 34.9249C1023.34 93.6574 721.076 92.3425 464.942 94.9448C208.807 97.5471 1.1506 122.576 0.515856 60.1006C0.393262 48.0341 143.6 7.8677 399.734 5.26541C613.818 3.09035 905.467 13.4575 904.838 35.0201" stroke="#FAF7F5"/>
</svg>
