<svg width="1009" height="363" viewBox="0 0 1009 363" fill="none" xmlns="http://www.w3.org/2000/svg">
<path d="M27.6294 99.528V91.256H60.8054V99.528H27.6294ZM52.5334 145.728V154H27.6294V145.728H52.5334ZM19.2694 99.528H27.6294V145.728H19.2694V99.528ZM69.1654 137.456H60.8054V99.528H69.1654V137.456ZM44.2614 137.456V129.184H52.5334V137.456H44.2614ZM52.5334 145.728V137.456H60.8054V145.728H52.5334ZM60.8054 154V145.728H69.0774V154H60.8054ZM118.897 145.728V154H85.7211V145.728H118.897ZM77.4491 91.256H85.7211V145.728H77.4491V91.256ZM118.897 91.256H127.169V145.728H118.897V91.256ZM152.001 99.528V91.256H168.545V99.528H152.001ZM152.001 107.8H143.729V99.528H152.001V107.8ZM185.089 107.8V154H176.817V135.08H143.729V154H135.457V107.8H143.729V126.808H176.817V107.8H185.089ZM168.545 107.8V99.528H176.817V107.8H168.545ZM201.651 145.728H234.827V154H193.379V91.256H234.827V99.528H201.651V145.64V145.728ZM234.827 99.528V145.728H243.099V99.528H234.827ZM292.923 99.528H301.195V118.536H292.923V99.528ZM292.923 118.536V126.808H301.195V154H292.923V135.08H284.651V126.808H259.747V154H251.387V91.256H292.923V99.528H259.747V118.536H292.923ZM326.024 99.528V91.256H342.568V99.528H326.024ZM326.024 107.8H317.752V99.528H326.024V107.8ZM359.112 107.8V154H350.84V135.08H317.752V154H309.48V107.8H317.752V126.808H350.84V107.8H359.112ZM342.568 107.8V99.528H350.84V107.8H342.568ZM392.306 154H384.034V99.528H367.402V91.256H408.938V99.528H392.306V154ZM417.246 91.256H425.518V154H417.246V91.256ZM475.192 91.256V99.528H442.104V91.256H475.192ZM475.192 107.8V99.528H483.464V107.8H475.192ZM483.464 145.728H475.192V137.456H483.464V145.728ZM442.104 154V145.728H475.192V154H442.104ZM433.832 99.528H442.104V145.728H433.832V99.528ZM549.876 91.256V99.528H516.612V118.536H541.604V126.808H516.612V154H508.34V91.256H549.876ZM599.631 145.728V154H566.455V145.728H599.631ZM558.183 91.256H566.455V145.728H558.183V91.256ZM599.631 91.256H607.903V145.728H599.631V91.256ZM632.735 99.528V107.8H624.463V154H616.191V91.256H624.463V99.528H632.735ZM665.911 91.256V154H657.639V145.728H649.367V137.456H657.639V91.256H665.911ZM632.735 116.072V107.8H641.007V116.072H632.735ZM641.007 137.456V116.072H649.279V137.456H641.007ZM682.471 145.728H715.647V154H674.199V91.256H715.647V99.528H682.471V145.64V145.728ZM715.647 99.528V145.728H723.919V99.528H715.647ZM732.207 91.256H740.479V154H732.207V91.256ZM765.337 99.528V107.8H757.065V154H748.793V91.256H757.065V99.528H765.337ZM798.513 91.256V154H790.241V145.728H781.969V137.456H790.241V91.256H798.513ZM765.337 116.072V107.8H773.609V116.072H765.337ZM773.609 137.456V116.072H781.881V137.456H773.609ZM848.161 91.256V99.528H815.073V91.256H848.161ZM856.433 110.176V99.528H848.161V110.176H856.433ZM856.433 122.672H831.617V130.944H848.161V145.728H856.433V122.672ZM848.161 154V145.728H815.073V154H848.161ZM806.801 145.728H815.073V99.528H806.801V145.728Z" fill="#3388FF"/>
<path d="M489.758 198.528V190.256H531.118V198.528H489.758ZM489.758 198.528V206.8H481.486V198.528H489.758ZM547.662 236.456V244.728H539.39V236.456H547.662ZM531.118 228.184V198.528H539.39V228.184H531.118ZM539.39 244.728V253H489.758V244.728H539.39ZM522.846 228.184H531.118V236.456H498.03V228.184H514.574V215.072H498.03V206.8H522.846V228.184ZM489.758 215.072H498.03V228.184H489.758V215.072ZM489.758 236.456V244.728H481.486V236.456H489.758ZM473.214 206.8H481.486V236.456H473.214V206.8ZM564.243 198.528H555.971V244.728H564.243V225.808H589.147V217.536H564.243V198.616V198.528ZM597.419 253H564.243V244.728H597.419V253ZM597.419 198.528H564.243V190.256H597.419V198.528ZM630.633 253H622.361V198.528H605.729V190.256H647.265V198.528H630.633V253ZM697.021 190.256H705.293V253H697.021V225.808H663.845V253H655.573V190.256H663.845V217.536H697.021V190.256ZM771.615 244.728V253H738.439V244.728H771.615ZM730.167 190.256H738.439V244.728H730.167V190.256ZM796.469 198.528V190.256H813.013V198.528H796.469ZM796.469 206.8H788.197V198.528H796.469V206.8ZM829.557 206.8V253H821.285V234.08H788.197V253H779.925V206.8H788.197V225.808H821.285V206.8H829.557ZM813.013 206.8V198.528H821.285V206.8H813.013ZM862.75 253H854.478V198.528H837.846V190.256H879.382V198.528H862.75V253ZM904.234 198.528V190.256H920.778V198.528H904.234ZM904.234 206.8H895.962V198.528H904.234V206.8ZM937.322 206.8V253H929.05V234.08H895.962V253H887.69V206.8H895.962V225.808H929.05V206.8H937.322ZM920.778 206.8V198.528H929.05V206.8H920.778ZM970.516 244.728V236.456H978.788V244.728H970.516ZM970.516 215.072V236.456H962.244V215.072H970.516ZM962.244 206.8V215.072H953.884V253H945.612V190.256H953.884V206.8H962.244ZM987.06 215.072V236.456H978.788V215.072H987.06ZM995.42 206.8V190.256H1003.69V253H995.42V215.072H987.06V206.8H995.42ZM987.06 215.072V206.8H995.42V215.072H987.06Z" fill="white"/>
<rect x="408" y="218.683" width="42" height="8.84211" fill="#E573E5"/>
<rect x="441.157" y="218.683" width="8.84211" height="8.84211" fill="#E573E5"/>
<rect x="432.315" y="209.84" width="8.84211" height="8.84211" fill="#E573E5"/>
<rect x="432.315" y="227.522" width="8.84211" height="8.84211" fill="#E573E5"/>
<rect x="423.472" y="201" width="8.84211" height="8.84211" fill="#E573E5"/>
<rect x="423.472" y="236.369" width="8.84211" height="8.84211" fill="#E573E5"/>
<path d="M862.534 102.608C999.656 161.373 704.39 159.987 454.191 162.529C203.991 165.071 1.1506 190.051 0.515856 127.576C0.393262 115.509 140.273 75.3766 390.473 72.8346C599.596 70.7099 884.491 81.1457 883.882 102.708" stroke="#FAF7F5"/>
</svg>
