<svg width="596" height="108" viewBox="0 0 596 108" fill="none" xmlns="http://www.w3.org/2000/svg">
<path d="M23.408 50.536H15.136V23.256H23.408V50.536ZM31.68 86V58.808H39.952V86H31.68ZM48.224 23.256H56.496V50.536H48.224V23.256ZM31.68 58.808H23.408V50.536H31.68V58.808ZM48.224 58.808H39.952V50.536H48.224V58.808ZM81.4399 77.728H73.1679V69.456H81.4399V77.728ZM106.256 86H81.4399V77.728H106.256V86ZM73.1679 69.456H64.8079V39.8H73.1679V69.456ZM106.256 77.728H114.616V69.456H106.256V77.728ZM114.616 69.456H122.888V39.8H114.616V69.456ZM106.256 31.528H114.616V39.8H106.256V31.528ZM81.4399 23.256H106.256V31.528H81.4399V23.256ZM81.4399 31.528H73.1679V39.8H81.4399V31.528ZM172.6 77.728V86H139.424V77.728H172.6ZM131.152 23.256H139.424V77.728H131.152V23.256ZM172.6 23.256H180.872V77.728H172.6V23.256ZM230.695 31.528H238.967V50.536H230.695V31.528ZM230.695 50.536V58.808H238.967V86H230.695V67.08H222.423V58.808H197.519V86H189.159V23.256H230.695V31.528H197.519V50.536H230.695ZM305.287 31.528H313.559V50.536H305.287V31.528ZM305.287 50.536V58.808H272.111V77.728H305.287V86H263.839V23.256H305.287V31.528H272.111V50.536H305.287ZM305.287 58.808H313.559V77.728H305.287V58.808ZM338.391 31.528V23.256H354.935V31.528H338.391ZM338.391 39.8H330.119V31.528H338.391V39.8ZM371.479 39.8V86H363.207V67.08H330.119V86H321.847V39.8H330.119V58.808H363.207V39.8H371.479ZM354.935 39.8V31.528H363.207V39.8H354.935ZM421.217 77.728V86H388.041V77.728H421.217ZM379.769 23.256H388.041V77.728H379.769V23.256ZM470.975 77.728V86H437.799V77.728H470.975ZM429.527 23.256H437.799V77.728H429.527V23.256ZM495.916 77.728H487.644V69.456H495.916V77.728ZM520.732 86H495.916V77.728H520.732V86ZM487.644 69.456H479.284V39.8H487.644V69.456ZM520.732 77.728H529.092V69.456H520.732V77.728ZM529.092 69.456H537.364V39.8H529.092V69.456ZM520.732 31.528H529.092V39.8H520.732V31.528ZM495.916 23.256H520.732V31.528H495.916V23.256ZM495.916 31.528H487.644V39.8H495.916V31.528ZM570.532 86H562.26V31.528H545.628V23.256H587.164V31.528H570.532V86Z" fill="#E573E5"/>
<path d="M571.361 35.566C662.382 94.7998 466.817 92.4008 301.113 94.0844C135.41 95.7679 1.1506 120.051 0.515856 57.5757C0.393262 45.5092 92.9006 5.8579 258.604 4.17438C397.103 2.76724 585.831 14.1801 585.501 35.7396" stroke="#FAF7F5"/>
</svg>
