<svg width="504" height="108" viewBox="0 0 504 108" fill="none" xmlns="http://www.w3.org/2000/svg">
<path d="M40.04 85.2334H31.768V30.7614H15.136V22.4894H56.672V30.7614H40.04V85.2334ZM106.428 76.9614V85.2334H73.2518V76.9614H106.428ZM64.9798 22.4894H73.2518V76.9614H64.9798V22.4894ZM106.428 22.4894H114.7V76.9614H106.428V22.4894ZM122.988 76.9614V68.6894H131.26V76.9614H122.988ZM164.436 76.9614V58.0414H172.708V76.9614H164.436ZM164.436 39.0334V30.7614H172.708V39.0334H164.436ZM122.988 49.7694V30.7614H131.26V49.7694H122.988ZM131.26 58.0414V49.7694H164.436V58.0414H131.26ZM131.26 30.7614V22.4894H164.436V30.7614H131.26ZM131.26 85.2334V76.9614H164.436V85.2334H131.26ZM222.397 68.6894H230.669V76.9614H222.397V68.6894ZM214.125 68.6894V76.9614H205.853V68.6894H214.125ZM197.581 22.4894H205.853V68.6894H197.581V22.4894ZM230.669 22.4894H238.941V68.6894H230.669V22.4894ZM214.125 76.9614H222.397V85.2334H214.125V76.9614ZM263.885 76.9614H255.613V68.6894H263.885V76.9614ZM288.701 85.2334H263.885V76.9614H288.701V85.2334ZM255.613 68.6894H247.253V39.0334H255.613V68.6894ZM288.701 76.9614H297.061V68.6894H288.701V76.9614ZM297.061 68.6894H305.333V39.0334H297.061V68.6894ZM288.701 30.7614H297.061V39.0334H288.701V30.7614ZM263.885 22.4894H288.701V30.7614H263.885V22.4894ZM263.885 30.7614H255.613V39.0334H263.885V30.7614ZM338.501 85.2334H330.229V30.7614H313.597V22.4894H355.133V30.7614H338.501V85.2334ZM380.073 76.9614H371.801V68.6894H380.073V76.9614ZM404.889 85.2334H380.073V76.9614H404.889V85.2334ZM371.801 68.6894H363.441V39.0334H371.801V68.6894ZM404.889 76.9614H413.249V68.6894H404.889V76.9614ZM413.249 68.6894H421.521V39.0334H413.249V68.6894ZM404.889 30.7614H413.249V39.0334H404.889V30.7614ZM380.073 22.4894H404.889V30.7614H380.073V22.4894ZM380.073 30.7614H371.801V39.0334H380.073V30.7614ZM429.784 76.9614V68.6894H438.056V76.9614H429.784ZM471.232 76.9614V58.0414H479.504V76.9614H471.232ZM471.232 39.0334V30.7614H479.504V39.0334H471.232ZM429.784 49.7694V30.7614H438.056V49.7694H429.784ZM438.056 58.0414V49.7694H471.232V58.0414H438.056ZM438.056 30.7614V22.4894H471.232V30.7614H438.056ZM438.056 85.2334V76.9614H471.232V85.2334H438.056Z" fill="#E573E5"/>
<path d="M482.979 35.6959C560.006 95.0718 394.704 92.3654 254.648 93.7884C114.593 95.2113 1.1506 119.283 0.515856 56.8076C0.393262 44.7411 78.5212 5.23593 218.577 3.81298C335.639 2.62365 495.175 14.3331 494.931 35.8917" stroke="#FAF7F5"/>
</svg>
