<svg width="914" height="914" viewBox="0 0 914 914" fill="none" xmlns="http://www.w3.org/2000/svg">
<path d="M806.085 569.644C819.456 553.059 824.547 531.289 819.917 510.496L762.874 254.297C758.244 233.503 744.397 215.95 725.254 206.605L489.384 91.4659C470.24 82.121 447.883 82.0021 428.641 91.1428L191.559 203.765C172.317 212.906 158.285 230.312 153.434 251.055L93.6678 506.632C88.8171 527.375 93.6761 549.198 106.869 565.924L269.424 772C282.617 788.726 302.709 798.534 324.011 798.647L586.48 800.043C607.782 800.157 627.977 790.563 641.347 773.979L806.085 569.644Z" fill="#101056"/>
<path d="M765.089 560.055C778.46 543.471 783.551 521.701 778.921 500.907L729.818 280.371C725.188 259.578 711.342 242.024 692.198 232.679L489.16 133.567C470.017 124.222 447.66 124.103 428.418 133.244L224.337 230.19C205.095 239.331 191.062 256.736 186.212 277.479L134.765 497.48C129.914 518.224 134.773 540.047 147.967 556.772L287.894 734.164C301.087 750.889 321.179 760.697 342.481 760.81L568.415 762.012C589.717 762.125 609.912 752.532 623.282 735.948L765.089 560.055Z" fill="#15155F"/>
<mask id="mask0_432_681" style="mask-type:alpha" maskUnits="userSpaceOnUse" x="132" y="126" width="649" height="637">
<path d="M765.089 560.055C778.46 543.471 783.551 521.701 778.921 500.907L729.818 280.371C725.188 259.578 711.342 242.024 692.198 232.679L489.16 133.567C470.017 124.222 447.66 124.103 428.418 133.244L224.337 230.19C205.095 239.331 191.062 256.736 186.212 277.479L134.765 497.48C129.914 518.224 134.773 540.047 147.967 556.772L287.894 734.164C301.087 750.889 321.179 760.697 342.481 760.81L568.415 762.012C589.717 762.125 609.912 752.532 623.282 735.948L765.089 560.055Z" fill="#15155F"/>
</mask>
<g mask="url(#mask0_432_681)">
<path d="M306.852 740.697L144.634 534.854L340.637 491.135L394.972 560.093L306.852 740.697Z" fill="#F6A6DA" stroke="#101056" stroke-width="20"/>
<path d="M140.293 515.335L200.013 259.957L356.299 386.021L336.283 471.615L140.293 515.335Z" fill="#F9CEAD" stroke="#101056" stroke-width="20"/>
<path d="M324.813 749.472L586.866 750.806L500.65 569.274L412.935 568.863L324.813 749.472Z" fill="#9783EA" stroke="#101056" stroke-width="20"/>
<path d="M604.915 742.2L769.36 538.041L573.834 492.351L518.722 560.734L604.915 742.2Z" fill="#94BBFD" stroke="#101056" stroke-width="20"/>
<path d="M773.909 518.565L717.017 262.644L559.332 387.114L578.392 472.87L773.909 518.565Z" fill="#CCF6FF" stroke="#101056" stroke-width="20"/>
<path d="M212.551 244.426L449.425 131.814L448.219 332.778L368.877 370.512L212.551 244.426Z" fill="#FCEE8D" stroke="#101056" stroke-width="20"/>
<path d="M469.4 131.982L704.642 246.93L546.948 371.413L468.117 332.897L469.4 131.982Z" fill="#D9D9BC" stroke="#101056" stroke-width="20"/>
<path d="M562.848 503.851C572.398 492.005 576.035 476.455 572.728 461.603L559.778 403.444C556.472 388.591 546.581 376.053 532.907 369.378L479.363 343.241C465.689 336.566 449.72 336.481 435.976 343.01L382.157 368.576C368.412 375.105 358.389 387.538 354.924 402.354L341.357 460.372C337.892 475.188 341.363 490.776 350.787 502.723L387.688 549.504C397.111 561.45 411.462 568.456 426.678 568.537L486.26 568.854C501.476 568.935 515.901 562.082 525.451 550.236L562.848 503.851Z" fill="#101056"/>
</g>
</svg>
