<svg width="963" height="963" viewBox="0 0 963 963" fill="none" xmlns="http://www.w3.org/2000/svg">
<path d="M849.978 599.271C863.349 582.687 868.44 560.917 863.81 540.123L802.934 266.711C798.304 245.917 784.457 228.364 765.314 219.019L513.596 96.1439C494.452 86.799 472.095 86.6801 452.853 95.8207L199.842 216.011C180.6 225.151 166.567 242.557 161.717 263.3L97.935 536.049C93.0842 556.792 97.9432 578.615 111.136 595.341L284.613 815.263C297.806 831.989 317.898 841.797 339.2 841.91L619.304 843.4C640.606 843.513 660.801 833.92 674.171 817.336L849.978 599.271Z" fill="#101056"/>
<path d="M789.194 585.059C802.564 568.475 807.655 546.704 803.025 525.911L753.922 305.374C749.292 284.581 735.446 267.027 716.302 257.682L513.265 158.57C494.121 149.226 471.764 149.107 452.522 158.247L248.441 255.193C229.199 264.334 215.167 281.739 210.316 302.483L158.869 522.484C154.019 543.227 158.878 565.05 172.071 581.776L311.998 759.167C325.192 775.893 345.283 785.7 366.585 785.813L592.519 787.015C613.821 787.129 634.016 777.536 647.387 760.951L789.194 585.059Z" fill="#15155F"/>
<mask id="mask0_432_780" style="mask-type:alpha" maskUnits="userSpaceOnUse" x="157" y="151" width="648" height="637">
<path d="M789.194 585.059C802.564 568.475 807.655 546.704 803.025 525.911L753.922 305.374C749.293 284.581 735.446 267.027 716.302 257.682L513.265 158.57C494.121 149.226 471.764 149.107 452.522 158.247L248.441 255.193C229.199 264.334 215.167 281.739 210.316 302.483L158.869 522.484C154.019 543.227 158.878 565.05 172.071 581.776L311.999 759.167C325.192 775.893 345.283 785.7 366.586 785.813L592.519 787.015C613.822 787.129 634.016 777.536 647.387 760.951L789.194 585.059Z" fill="#15155F"/>
</mask>
<g mask="url(#mask0_432_780)">
<path d="M330.956 765.701L168.738 559.858L364.742 516.138L419.077 585.096L330.956 765.701Z" fill="#F6A6DA" stroke="#101056" stroke-width="20"/>
<path d="M164.398 540.339L224.117 284.96L380.403 411.025L360.388 496.618L164.398 540.339Z" fill="#F9CEAD" stroke="#101056" stroke-width="20"/>
<path d="M348.918 774.475L610.971 775.81L524.755 594.277L437.04 593.866L348.918 774.475Z" fill="#9783EA" stroke="#101056" stroke-width="20"/>
<path d="M629.02 767.203L793.464 563.045L597.939 517.355L542.826 585.737L629.02 767.203Z" fill="#94BBFD" stroke="#101056" stroke-width="20"/>
<path d="M798.013 543.569L741.122 287.647L583.437 412.117L602.497 497.873L798.013 543.569Z" fill="#CCF6FF" stroke="#101056" stroke-width="20"/>
<path d="M236.655 269.429L473.53 156.817L472.324 357.782L392.981 395.515L236.655 269.429Z" fill="#FCEE8D" stroke="#101056" stroke-width="20"/>
<path d="M493.504 156.985L728.746 271.934L571.052 396.417L492.221 357.901L493.504 156.985Z" fill="#D9D9BC" stroke="#101056" stroke-width="20"/>
<path d="M586.952 528.854C596.503 517.009 600.139 501.458 596.832 486.606L583.883 428.447C580.576 413.595 570.686 401.056 557.012 394.382L503.468 368.244C489.794 361.569 473.824 361.485 460.08 368.014L406.261 393.58C392.517 400.109 382.494 412.541 379.029 427.358L365.462 485.375C361.997 500.192 365.468 515.779 374.891 527.726L411.792 574.507C421.216 586.454 435.567 593.459 450.783 593.54L510.365 593.857C525.581 593.938 540.006 587.086 549.556 575.24L586.952 528.854Z" fill="#101056"/>
</g>
</svg>
